HIERARCHY
ROOT Hips
{
  OFFSET 0 0.240689 0
  CHANNELS 6 Xposition Yposition Zposition Zrotation Xrotation Yrotation
  JOINT Bip01_Spine0
  {
    OFFSET 0 -24.7459 49.7988
    CHANNELS 6 Xposition Yposition Zposition Zrotation Xrotation Yrotation
    JOINT Bip01_Pelvis
    {
      OFFSET 0 0 0
      CHANNELS 6 Xposition Yposition Zposition Zrotation Xrotation Yrotation
      JOINT Bip01_Spine0_Tail
      {
        OFFSET -6.47486 -3.86022 0
        CHANNELS 6 Xposition Yposition Zposition Zrotation Xrotation Yrotation
        JOINT Bip01_Spine0_Tail1
        {
          OFFSET 10.3837 -0.00825882 0
          CHANNELS 6 Xposition Yposition Zposition Zrotation Xrotation Yrotation
          JOINT Bip01_Spine0_Tail2
          {
            OFFSET 10.3837 -0.00826263 0
            CHANNELS 6 Xposition Yposition Zposition Zrotation Xrotation Yrotation
            JOINT Bip01_Spine0_Tail3
            {
              OFFSET 10.3837 -0.00825882 0
              CHANNELS 6 Xposition Yposition Zposition Zrotation Xrotation Yrotation
              JOINT Bip01_Spine0_Tail4
              {
                OFFSET 10.3837 -0.00826263 0
                CHANNELS 6 Xposition Yposition Zposition Zrotation Xrotation Yrotation
                End Site
                {
                  OFFSET 0 0 0
                }
              }
            }
          }
        }
      }
      JOINT Bip01_R_Thigh
      {
        OFFSET 0 -1.52588e-005 -8.75617
        CHANNELS 6 Xposition Yposition Zposition Zrotation Xrotation Yrotation
        JOINT Bip01_R_Calf
        {
          OFFSET 19.7638 0 0
          CHANNELS 6 Xposition Yposition Zposition Zrotation Xrotation Yrotation
          JOINT Bip01_R_Foot
          {
            OFFSET 18.6534 0 0
            CHANNELS 6 Xposition Yposition Zposition Zrotation Xrotation Yrotation
            JOINT Bip01_R_Toe0
            {
              OFFSET 5.09145 13.9567 0
              CHANNELS 6 Xposition Yposition Zposition Zrotation Xrotation Yrotation
              JOINT Bip01_R_Toe01
              {
                OFFSET 4.28803 0 0
                CHANNELS 6 Xposition Yposition Zposition Zrotation Xrotation Yrotation
                JOINT Bip01_R_Toe02
                {
                  OFFSET 3.85801 0 0
                  CHANNELS 6 Xposition Yposition Zposition Zrotation Xrotation Yrotation
                  End Site
                  {
                    OFFSET 0 0 0
                  }
                }
              }
            }
          }
        }
      }
      JOINT Bip01_L_Thigh
      {
        OFFSET 0 1.52588e-005 8.75617
        CHANNELS 6 Xposition Yposition Zposition Zrotation Xrotation Yrotation
        JOINT Bip01_L_Calf
        {
          OFFSET 19.7638 0 0
          CHANNELS 6 Xposition Yposition Zposition Zrotation Xrotation Yrotation
          JOINT Bip01_L_Foot
          {
            OFFSET 18.6534 0 0
            CHANNELS 6 Xposition Yposition Zposition Zrotation Xrotation Yrotation
            JOINT Bip01_L_Toe0
            {
              OFFSET 5.09144 13.9567 0
              CHANNELS 6 Xposition Yposition Zposition Zrotation Xrotation Yrotation
              JOINT Bip01_L_Toe01
              {
                OFFSET 4.28802 0 0
                CHANNELS 6 Xposition Yposition Zposition Zrotation Xrotation Yrotation
                JOINT Bip01_L_Toe02
                {
                  OFFSET 3.85801 0 0
                  CHANNELS 6 Xposition Yposition Zposition Zrotation Xrotation Yrotation
                  End Site
                  {
                    OFFSET 0 0 0
                  }
                }
              }
            }
          }
        }
      }
      JOINT Bip01_Spine
      {
        OFFSET 9.14835 -0.00640869 -1.1e-005
        CHANNELS 6 Xposition Yposition Zposition Zrotation Xrotation Yrotation
        JOINT Bip01_Spine1
        {
          OFFSET 8.04366 -0.00638199 0
          CHANNELS 6 Xposition Yposition Zposition Zrotation Xrotation Yrotation
          JOINT Bip01_Spine2
          {
            OFFSET 8.04367 -0.00639343 0
            CHANNELS 6 Xposition Yposition Zposition Zrotation Xrotation Yrotation
            JOINT Bip01_Spine3
            {
              OFFSET 8.04304 -0.00831222 0
              CHANNELS 6 Xposition Yposition Zposition Zrotation Xrotation Yrotation
              JOINT Bip01_Neck
              {
                OFFSET 10.6685 1.06813 0
                CHANNELS 6 Xposition Yposition Zposition Zrotation Xrotation Yrotation
                JOINT Bip01_R_Clavicle
                {
                  OFFSET -3.21661 -4.89635 -9.04802
                  CHANNELS 6 Xposition Yposition Zposition Zrotation Xrotation Yrotation
                  JOINT Bip01_R_UpperArm
                  {
                    OFFSET 19.0492 0 0
                    CHANNELS 6 Xposition Yposition Zposition Zrotation Xrotation Yrotation
                    JOINT Bip01_R_Forearm
                    {
                      OFFSET 10.3706 0 0
                      CHANNELS 6 Xposition Yposition Zposition Zrotation Xrotation Yrotation
                      JOINT Bip01_R_Hand
                      {
                        OFFSET 22.8632 0 0
                        CHANNELS 6 Xposition Yposition Zposition Zrotation Xrotation Yrotation
                        JOINT Bip01_R_Finger0
                        {
                          OFFSET 6.48259 0.103651 0.504496
                          CHANNELS 6 Xposition Yposition Zposition Zrotation Xrotation Yrotation
                          JOINT Bip01_R_Finger01
                          {
                            OFFSET 3.66847 0 0
                            CHANNELS 6 Xposition Yposition Zposition Zrotation Xrotation Yrotation
                            End Site
                            {
                              OFFSET 0 0 0
                            }
                          }
                        }
                      }
                    }
                  }
                }
                JOINT Bip01_L_Clavicle
                {
                  OFFSET -3.21661 -4.89641 9.04797
                  CHANNELS 6 Xposition Yposition Zposition Zrotation Xrotation Yrotation
                  JOINT Bip01_L_UpperArm
                  {
                    OFFSET 19.0492 0 0
                    CHANNELS 6 Xposition Yposition Zposition Zrotation Xrotation Yrotation
                    JOINT Bip01_L_Forearm
                    {
                      OFFSET 10.3706 0 0
                      CHANNELS 6 Xposition Yposition Zposition Zrotation Xrotation Yrotation
                      JOINT Bip01_L_Hand
                      {
                        OFFSET 22.8631 0 0
                        CHANNELS 6 Xposition Yposition Zposition Zrotation Xrotation Yrotation
                        JOINT Bip01_L_Finger0
                        {
                          OFFSET 6.48257 0.103655 -0.504492
                          CHANNELS 6 Xposition Yposition Zposition Zrotation Xrotation Yrotation
                          JOINT Bip01_L_Finger01
                          {
                            OFFSET 3.66844 0 0
                            CHANNELS 6 Xposition Yposition Zposition Zrotation Xrotation Yrotation
                            End Site
                            {
                              OFFSET 0 0 0
                            }
                          }
                        }
                      }
                    }
                  }
                }
                JOINT Bip01_Neck1
                {
                  OFFSET 7.52459 -0.00656509 0
                  CHANNELS 6 Xposition Yposition Zposition Zrotation Xrotation Yrotation
                  JOINT Bip01_Neck2
                  {
                    OFFSET 8.4783 -0.00588226 0
                    CHANNELS 6 Xposition Yposition Zposition Zrotation Xrotation Yrotation
                    JOINT Bip01_Head
                    {
                      OFFSET 8.41606 0 0
                      CHANNELS 6 Xposition Yposition Zposition Zrotation Xrotation Yrotation
                      JOINT EyesBlue
                      {
                        OFFSET 0 0 0
                        CHANNELS 6 Xposition Yposition Zposition Zrotation Xrotation Yrotation
                        JOINT EyesBlue_2
                        {
                          OFFSET 0 -0.500007 0
                          CHANNELS 6 Xposition Yposition Zposition Zrotation Xrotation Yrotation
                          End Site
                          {
                            OFFSET 0 0 0
                          }
                        }
                      }
                      JOINT Bip01_Head2_Eyeleds
                      {
                        OFFSET 6.52751 7.61746 2.2e-005
                        CHANNELS 6 Xposition Yposition Zposition Zrotation Xrotation Yrotation
                        End Site
                        {
                          OFFSET 0 0 0
                        }
                      }
                      JOINT Bip01_Head_Muzzle
                      {
                        OFFSET 2.88628 13.9448 3.88994
                        CHANNELS 6 Xposition Yposition Zposition Zrotation Xrotation Yrotation
                        End Site
                        {
                          OFFSET 0 0 0
                        }
                      }
                      JOINT Bip01_Head1_Jaw
                      {
                        OFFSET 0.271065 1.32405 0
                        CHANNELS 6 Xposition Yposition Zposition Zrotation Xrotation Yrotation
                        JOINT _Bip01_Head11_TungeControler
                        {
                          OFFSET 4.61616 5.82872 0
                          CHANNELS 6 Xposition Yposition Zposition Zrotation Xrotation Yrotation
                          JOINT _Bip01_Ponytail3_tunge
                          {
                            OFFSET 5.17785 2.98805 0
                            CHANNELS 6 Xposition Yposition Zposition Zrotation Xrotation Yrotation
                            JOINT Bip01_Ponytail31
                            {
                              OFFSET 5.57569 0 0
                              CHANNELS 6 Xposition Yposition Zposition Zrotation Xrotation Yrotation
                              JOINT Bip01_Ponytail32
                              {
                                OFFSET 2.93165 0 0
                                CHANNELS 6 Xposition Yposition Zposition Zrotation Xrotation Yrotation
                                JOINT Bip01_Ponytail3Nub
                                {
                                  OFFSET 3.30155 0 0
                                  CHANNELS 6 Xposition Yposition Zposition Zrotation Xrotation Yrotation
                                  End Site
                                  {
                                    OFFSET 0 0 0
                                  }
                                }
                              }
                            }
                          }
                        }
                        JOINT Bip01_Head_JawNub
                        {
                          OFFSET 15.5776 -0.000389099 0
                          CHANNELS 6 Xposition Yposition Zposition Zrotation Xrotation Yrotation
                          End Site
                          {
                            OFFSET 0 0 0
                          }
                        }
                      }
                      JOINT Bip01_Ponytail2
                      {
                        OFFSET 9.40334 1.03973 -6.51764
                        CHANNELS 6 Xposition Yposition Zposition Zrotation Xrotation Yrotation
                        JOINT Bip01_Ponytail21
                        {
                          OFFSET 2.77018 -0.00640106 1.33514e-005
                          CHANNELS 6 Xposition Yposition Zposition Zrotation Xrotation Yrotation
                          End Site
                          {
                            OFFSET 0 0 0
                          }
                        }
                      }
                      JOINT Bip01_Ponytail1
                      {
                        OFFSET 9.40368 1.03969 6.51768
                        CHANNELS 6 Xposition Yposition Zposition Zrotation Xrotation Yrotation
                        JOINT Bip01_Ponytail11
                        {
                          OFFSET 2.77018 -0.00640487 0
                          CHANNELS 6 Xposition Yposition Zposition Zrotation Xrotation Yrotation
                          End Site
                          {
                            OFFSET 0 0 0
                          }
                        }
                      }
                    }
                  }
                }
              }
            }
          }
        }
      }
    }
  }
}
MOTION
Frames:	4
Frame Time:	0.0333333
0 0 -1e-006 -0 -90 -0 -0.262345 -24.6428 50.5541 89.9997 -0.000315398 88.3079 0 0 0 -90 -3.50835e-015 -90 -6.45928 -3.86079 0.44028 133.257 2.8418 -2.67083 10.3793 -0.007175 1.76779e-011 -29.7613 -1.92696e-005 7.79299e-005 10.3834 -0.008117 0.000128 1.96192 0.000108564 0.000100872 10.3851 -0.008007 8.40001e-005 14.5939 0.00024311 0.000181554 10.3846 -0.008113 0.000133 11.0471 0.000596143 0.000483649 1.1e-005 -1.5e-005 -8.75617 -93.4849 -12.2924 174.728 19.7638 2e-006 -1e-006 -59.0146 9.3316e-005 0.000314781 18.6534 7e-006 -1.56319e-013 -24.1755 2.00081 7.35223 5.09143 13.9567 1.23348e-006 111.854 3.01019 1.82567 4.288 3e-006 -2.27374e-013 53.6716 8.43272 1.28952 3.85799 2.18492e-013 1e-006 -45 -1.66222e-005 -6.10591e-006 -1.5e-005 7e-006 8.75617 -107.335 -4.32538 -179.025 19.7638 -5.32907e-015 0 -62.2334 8.13098e-005 0.00031444 18.6534 -1.42109e-014 -5.32907e-015 -22.4623 0.800413 -5.62929 5.09143 13.9567 -7.68122e-008 112.491 -0.0437714 4.92356 4.288 -1e-006 -2.66454e-014 51.474 -6.03003 0.263548 3.85799 2.54019e-013 -2e-006 -45 -7.0553e-006 -7.19486e-006 9.12717 -0.006408 -0.622128 2.00884 0.138554 3.95102 8.04366 -0.006404 -1.41743e-009 0.363219 0.000385055 0.0540749 8.04366 -0.006404 -1.50131e-009 -0.532503 -0.000458009 0.0540771 8.04304 -0.008323 -1.7199e-009 -3.62213 0.000692794 0.0540837 10.67 1.06806 0.000150997 -11.2027 0.00107329 0.00143202 -3.39208 -4.77657 -9.04794 -168.841 -85.4172 109.85 19.0491 -4.08562e-014 -3e-006 95.5118 13.7958 -98.9356 10.3706 1.77636e-015 -3.55271e-015 -62.1613 0.000130823 0.000584611 22.8631 -1e-006 9.41469e-014 -10.9862 27.7451 3.19014 6.48255 0.103657 0.504496 -77.0812 -0.640743 -15.4861 3.66843 1e-006 2.85994e-013 34.6071 1.09126e-005 -1.27446e-006 -3.39197 -4.77647 9.04783 -168.842 85.4168 -110.131 19.0492 9.9476e-014 7e-006 95.0258 -14.4193 94.4807 10.3706 3.55271e-015 -5.32907e-015 -60.2169 7.6287e-005 0.000308983 22.8631 -1e-006 -2.84217e-014 -10.4739 -12.8782 5.41899 6.48255 0.103653 -0.504496 -76.1917 0.887512 15.476 3.66843 9.99999e-007 -2e-006 40.107 -9.23367e-006 5.29587e-006 7.52562 -0.006721 2.8309e-010 -4.20234 8.66624e-006 1.14982e-005 8.47685 -0.006454 2.12442e-010 15.9039 2.09709e-005 -5.26304e-005 8.41605 3e-006 4.4853e-014 -85.2407 0.215479 -0.00749925 -3e-006 1e-006 -3e-006 -23.1098 1.37701e-015 90 -1.42289e-006 -0.499985 -4.68622e-005 7.08252e-008 90 90 0 0 0 -113.549 1.52588e-005 -180 3.2576 13.9971 3.88993 -22.9892 1.37021e-015 90 0 0 0 -88.8666 1.52588e-005 -180 0 0 0 -108.721 -7.26447e-006 -7.50983e-006 0 0 0 120.523 0.946029 -2.55005 0 0 0 -0.16845 -8.97496e-008 1.77449e-008 0 0 0 -22.6319 7.11667e-006 2.35711e-006 0 0 0 -26.1943 1.08967e-006 -6.45774e-007 15.5776 -0.000396 -7.00009e-006 7.95139e-016 2.48481e-017 -0 9.40334 1.03972 -6.51764 -25.4334 -5.88457 26.0127 2.77017 -0.006401 -8.26219e-011 7.05199 -0.0790228 -0.638853 9.40368 1.03968 6.51767 -25.4335 5.88457 -26.0125 2.77018 -0.006404 -1.2064e-010 7.05199 0.0790369 0.638803 
0 0 -1e-006 -0 -90 -0 -0.262345 -24.3167 50.5543 90.0004 -2.17292e-005 88.9264 0 0 0 -90 -3.50835e-015 -90 -6.45928 -3.86079 0.44028 133.257 2.8418 -2.67083 10.3793 -0.007175 1.48561e-011 -29.7613 -1.92526e-005 7.79411e-005 10.3834 -0.008117 0.000128 -0.0516762 0.000104979 0.000102153 10.3851 -0.008007 8.40001e-005 12.5798 0.000235979 0.000186985 10.3846 -0.008113 0.000133 9.03392 0.000577521 0.00049572 1.1e-005 -1.5e-005 -8.75617 -93.6835 -12.2607 174.649 19.7638 2e-006 -1e-006 -58.5464 9.58843e-005 0.000314009 18.6534 7e-006 -1.63425e-013 -24.9766 1.75731 7.46742 5.09143 13.9567 1.33734e-006 112.61 3.03398 1.78583 4.288 3e-006 -2.38032e-013 53.6716 8.43272 1.28952 3.85799 2.34479e-013 1e-006 -45 -1.65799e-005 -6.13634e-006 -1.5e-005 7e-006 8.75617 -107.628 -4.34391 -179.021 19.7638 -5.32907e-015 8.88179e-015 -62.0888 8.20849e-005 0.00031424 18.6534 -7.10543e-015 -5.32907e-015 -22.9727 0.898714 -5.66182 5.09143 13.9567 -8.77444e-008 113.188 -0.0304548 4.94374 4.288 -1e-006 -3.37508e-014 51.474 -6.03003 0.263548 3.85799 2.96652e-013 -2e-006 -45 -6.46672e-006 -6.61931e-006 9.12717 -0.006408 -0.622128 0.0455236 0.00290611 3.95345 8.04366 -0.006404 -4.0338e-010 -8.90991e-007 4.30422e-005 0.054077 8.04366 -0.006404 -3.98584e-010 -8.91031e-007 4.30413e-005 0.054077 8.04304 -0.008323 -5.1191e-010 -4.29872 4.93949e-005 0.0540893 10.67 1.06806 0.000150928 -10.7116 0.00108003 0.00143201 -3.43266 -4.74686 -9.04794 -169.332 -85.417 109.851 19.0491 -3.19744e-014 -3e-006 95.8136 14.7571 -98.7548 10.3706 -1.06581e-014 3.55271e-015 -58.4999 0.00016768 0.000575172 22.8631 -1e-006 9.23706e-014 -12.6505 27.8467 3.02027 6.48255 0.103657 0.504496 -77.6502 -0.483079 -15.4917 3.66843 1e-006 2.89546e-013 34.6071 9.32472e-006 -8.96173e-007 -3.43255 -4.74677 9.04783 -169.332 85.4168 -110.133 19.0492 7.10543e-014 7e-006 95.0915 -15.5321 94.3167 10.3706 3.55271e-015 0 -56.383 9.67288e-005 0.000303048 22.8631 -1e-006 -2.84217e-014 -12.2715 -12.932 5.43161 6.48255 0.103653 -0.504496 -76.2945 0.85904 15.4776 3.66843 9.99999e-007 -2e-006 40.107 -8.39004e-006 4.60575e-006 7.52562 -0.006721 2.87508e-010 -4.48654 8.43113e-006 1.25185e-005 8.47685 -0.006454 2.05374e-010 15.6197 2.59159e-005 -5.25382e-005 8.41605 3e-006 -1.98064e-013 -73.4379 0.211153 -0.0435688 -3e-006 1e-006 -3e-006 -23.1098 1.37701e-015 90 -1.42256e-006 -0.499985 -4.6889e-005 180 90 -90 0 0 0 -113.549 1.52588e-005 -180 2.8863 13.9448 3.88993 -22.9892 1.37021e-015 90 0 0 0 -89.9389 -7.01671e-015 -180 0 0 0 -106.408 -5.33465e-006 -1.516e-005 0 0 0 117.89 1.13474 -3.06026 0 0 0 -0.16845 2.19107e-007 4.37594e-008 0 0 0 -22.6319 1.58727e-005 5.64322e-006 0 0 0 -26.1943 1.0747e-006 -1.03156e-006 15.5776 -0.000396 -7.00003e-006 1.59028e-015 1.98785e-016 -7.95139e-016 9.40334 1.03972 -6.51764 -19.0867 17.2452 20.3009 2.77017 -0.006401 1.33264e-010 2.43506 9.27815e-006 -1.76622e-005 9.40368 1.03968 6.51767 -19.0868 -17.2452 -20.3008 2.77018 -0.006404 -2.76895e-010 2.43506 9.27584e-006 -1.78181e-005 
0 0 -1e-006 -0 -90 -0 -0.262345 -24.1589 50.5544 90 -0.000318738 88.9482 0 0 0 -90 -3.50835e-015 -90 -6.45928 -3.86079 0.44028 133.257 2.8418 -2.67083 10.3793 -0.007175 1.47411e-011 -29.7613 -1.92519e-005 7.79416e-005 10.3834 -0.008117 0.000128 -0.751803 0.000103684 0.000106931 10.3851 -0.008007 8.40001e-005 11.8809 0.000235 0.000196006 10.3846 -0.008113 0.000133 8.33405 0.000571035 0.000499873 1.1e-005 -1.5e-005 -8.75617 -93.7446 -12.2156 174.549 19.7638 2e-006 -1e-006 -58.4545 9.63933e-005 0.000313862 18.6534 7e-006 -1.59872e-013 -25.8777 1.53508 7.55213 5.09143 13.9567 1.3711e-006 113.391 3.05801 1.74435 4.288 3e-006 -2.30926e-013 53.6716 8.43272 1.28952 3.85799 2.05169e-013 1e-006 -45 -1.62045e-005 -5.84257e-006 -1.5e-005 7e-006 8.75617 -107.708 -4.36214 -178.996 19.7638 -3.55271e-015 -1.77636e-015 -62.1566 8.17126e-005 0.000314337 18.6534 -7.10543e-015 -1.77636e-015 -23.6359 1.01294 -5.67808 5.09143 13.9567 -9.23311e-008 113.866 -0.0158675 4.96327 4.288 -1e-006 -2.84217e-014 51.474 -6.03003 0.263548 3.85799 2.93987e-013 -2e-006 -45 -6.44788e-006 -6.59962e-006 9.12717 -0.006408 -0.622128 -0.319569 -0.0223241 3.95338 8.04366 -0.006404 -2.50901e-010 -0.011147 3.25412e-005 0.054077 8.04366 -0.006404 -2.43973e-010 0.247215 0.000275503 0.054076 8.04304 -0.008323 -4.36469e-010 -4.28491 6.19978e-005 0.0540892 10.67 1.06806 0.000150926 -8.47396 0.00113136 0.00141606 -3.61531 -4.60874 -9.04794 -171.566 -85.4174 109.854 19.0491 -3.01981e-014 -3e-006 95.6534 14.1541 -98.7981 10.3706 0 8.88179e-015 -59.527 0.000157375 0.000577992 22.8631 -1e-006 9.23706e-014 -13.4088 27.8054 3.39847 6.48255 0.103657 0.504496 -77.2152 -0.603627 -15.4875 3.66843 1e-006 2.84217e-013 34.6071 8.20597e-006 -5.44295e-007 -3.61517 -4.60861 9.04783 -171.57 85.4168 -110.133 19.0492 7.99361e-014 7e-006 95.0511 -14.9006 94.3543 10.3706 -1.42109e-014 0 -57.4446 9.10848e-005 0.000304839 22.8631 -1e-006 -3.55271e-014 -12.8112 -12.9945 5.32144 6.48255 0.103653 -0.504496 -75.6683 1.03235 15.4673 3.66843 9.99999e-007 -2e-006 40.107 -8.17367e-006 4.42262e-006 7.52562 -0.006721 3.31413e-010 -6.40038 7.11292e-006 1.76615e-005 8.47685 -0.006454 2.09103e-010 13.7058 2.79747e-005 -5.176e-005 8.41605 3e-006 -2.1716e-013 -64.1573 0.203213 -0.0705374 -3e-006 1e-006 -3e-006 -23.1098 1.37701e-015 90 -1.42243e-006 -0.499985 -4.69187e-005 103.394 90 -13.3943 0 0 0 -113.549 3.05176e-005 -180 2.8863 13.9448 3.88993 -22.9892 1.37021e-015 90 0 0 0 -89.9389 -7.01671e-015 -180 0 0 0 -104.094 -5.55964e-006 -1.69659e-005 0 0 0 115.26 1.3232 -3.57056 0 0 0 -0.16845 2.09604e-007 1.19206e-008 0 0 0 -22.6319 6.63416e-006 1.4796e-006 0 0 0 -26.1943 1.10234e-006 -1.36187e-006 15.5776 -0.000396 -7.00002e-006 3.18055e-015 1.98785e-016 -0 9.40334 1.03972 -6.51764 -17.2441 22.2538 18.5719 2.77017 -0.006401 1.4103e-010 1.41397 0.00355399 0.143577 9.40368 1.03968 6.51767 -17.2441 -22.2538 -18.5718 2.77018 -0.006404 -2.61561e-010 1.41397 -0.00353448 -0.143599 
0 0 -1e-006 -0 -90 -0 -0.262345 -24.1134 50.555 90.0004 -4.96312e-005 88.7234 0 0 0 -90 -3.50835e-015 -90 -6.45928 -3.86079 0.44028 133.257 2.8418 -2.67083 10.3793 -0.007175 1.58038e-011 -29.7613 -1.92583e-005 7.79374e-005 10.3834 -0.008117 0.000128 -0.250703 0.000104611 0.000105886 10.3851 -0.008007 8.40001e-005 12.3819 0.000236083 0.000191182 10.3846 -0.008113 0.000133 8.835 0.000575678 0.000496886 1.1e-005 -1.5e-005 -8.75617 -93.9788 -12.1503 174.403 19.7638 2e-006 -1e-006 -58.6784 9.51676e-005 0.000314244 18.6534 7e-006 -1.7053e-013 -27.0789 1.34037 7.60724 5.09143 13.9567 1.40518e-006 114.369 3.08729 1.69193 4.288 3e-006 -2.41585e-013 53.6716 8.43272 1.28952 3.85799 2.07834e-013 1e-006 -45 -1.56973e-005 -5.42883e-006 -1.5e-005 7e-006 8.75617 -107.858 -4.38152 -178.979 19.7638 -3.55271e-015 1.77636e-015 -62.3899 8.04438e-005 0.000314666 18.6534 0 -3.55271e-015 -24.5422 1.12241 -5.67366 5.09143 13.9567 -9.46034e-008 114.634 -0.00438476 4.98835 4.288 -1e-006 -2.4869e-014 51.474 -6.03003 0.263548 3.85799 2.94875e-013 -2e-006 -45 -6.66226e-006 -6.80633e-006 9.12717 -0.006408 -0.622128 0.0501299 0.00322388 3.95345 8.04366 -0.006404 -4.65698e-010 0.179433 0.000211727 0.0540759 8.04366 -0.006404 -5.35289e-010 0.394092 0.000413517 0.0540739 8.04304 -0.008323 -9.02074e-010 -3.97049 0.000361119 0.0540874 10.67 1.06806 0.000150944 -6.09307 0.00118778 0.00139455 -3.80435 -4.45495 -9.04794 -173.946 -85.4169 109.854 19.0491 -3.90799e-014 -3e-006 95.2817 12.9868 -98.9553 10.3706 3.55271e-015 -1.77636e-015 -62.3408 0.000128945 0.000584864 22.8631 -1e-006 9.9476e-014 -14.162 27.6485 4.18824 6.48255 0.103657 0.504496 -76.0541 -0.925191 -15.472 3.66843 1e-006 2.6823e-013 34.6071 7.64098e-006 -2.71987e-007 -3.80416 -4.45483 9.04783 -173.953 85.4168 -110.13 19.0492 8.34888e-014 7e-006 94.9548 -13.6215 94.4829 10.3706 -7.10543e-015 -5.32907e-015 -60.3889 7.53084e-005 0.000309246 22.8631 -1e-006 -4.26326e-014 -13.1048 -13.0687 5.08866 6.48255 0.103653 -0.504496 -74.467 1.36443 15.4421 3.66843 9.99999e-007 -2e-006 40.107 -8.58697e-006 4.76667e-006 7.52562 -0.006721 3.82721e-010 -8.99136 4.8121e-006 2.47034e-005 8.47685 -0.006454 2.1195e-010 11.1148 3.50428e-005 -2.38135e-005 8.41605 3e-006 -1.90958e-013 -58.9704 0.198126 -0.0857282 -3e-006 1e-006 -3e-006 -23.1098 1.37701e-015 90 -1.42242e-006 -0.499985 -4.69329e-005 97.8479 90 -7.84792 0 0 0 -113.549 4.57764e-005 -180 2.8863 13.9448 3.88993 -22.9892 1.37021e-015 90 0 0 0 -89.9389 -7.01671e-015 -180 0 0 0 -101.78 2.05658e-005 -1.16028e-005 0 0 0 112.634 1.51133 -4.08097 0 0 0 -0.16845 1.25976e-007 3.5979e-009 0 0 0 -22.6319 4.68248e-006 4.22436e-007 0 0 0 -26.1943 1.12439e-006 -1.61966e-006 15.5776 -0.000396 -7.00001e-006 -6.36111e-015 -1.98785e-016 7.95139e-016 9.40334 1.03972 -6.51764 -18.2063 19.7192 19.4767 2.77017 -0.006401 7.95577e-011 1.932 0.00239369 0.0706651 9.40368 1.03968 6.51767 -18.2064 -19.7192 -19.4766 2.77018 -0.006404 -2.23121e-010 1.932 -0.00237427 -0.0706836 
